<svg width="40" height="35" viewBox="0 0 40 35" fill="none" xmlns="http://www.w3.org/2000/svg">
<rect width="40" height="35" rx="10" fill="#2CC66D"/>
<path d="M21.6667 19.6667H15.8333V21.3334H21.6667V19.6667ZM25.8333 23.8334H14.1667V14.6667H25.8333V23.8334ZM25.8333 10.5H25V8.83337H23.3333V10.5H16.6667V8.83337H15V10.5H14.1667C13.2417 10.5 12.5 11.25 12.5 12.1667V23.8334C12.5 24.2754 12.6756 24.6993 12.9882 25.0119C13.3007 25.3244 13.7246 25.5 14.1667 25.5H25.8333C26.2754 25.5 26.6993 25.3244 27.0118 25.0119C27.3244 24.6993 27.5 24.2754 27.5 23.8334V12.1667C27.5 11.7247 27.3244 11.3008 27.0118 10.9882C26.6993 10.6756 26.2754 10.5 25.8333 10.5ZM24.1667 16.3334H15.8333V18H24.1667V16.3334Z" fill="white"/>
</svg>
