<svg width="40" height="35" viewBox="0 0 40 35" fill="none" xmlns="http://www.w3.org/2000/svg">
<rect width="40" height="35" rx="10" fill="#152620"/>
<path d="M20 10.6666C20.9724 10.6666 21.9051 11.0529 22.5927 11.7406C23.2803 12.4282 23.6666 13.3608 23.6666 14.3333C23.6666 15.3058 23.2803 16.2384 22.5927 16.926C21.9051 17.6137 20.9724 18 20 18C19.0275 18 18.0949 17.6137 17.4072 16.926C16.7196 16.2384 16.3333 15.3058 16.3333 14.3333C16.3333 13.3608 16.7196 12.4282 17.4072 11.7406C18.0949 11.0529 19.0275 10.6666 20 10.6666V10.6666ZM20 19.8333C24.0516 19.8333 27.3333 21.4741 27.3333 23.5V25.3333H12.6666V23.5C12.6666 21.4741 15.9483 19.8333 20 19.8333Z" fill="#2CC66D"/>
</svg>
