<svg width="31" height="31" viewBox="0 0 31 31" fill="none" xmlns="http://www.w3.org/2000/svg">
<circle cx="15.5" cy="15.5" r="15.5" fill="#2CC66D"/>
<path d="M15.75 7.94C16.75 7.22 17.91 6.86 19.22 6.86C19.94 6.86 20.73 7.05 21.59 7.45C22.45 7.84 23.13 8.3 23.63 8.83C24.66 10.11 25.09 11.6 24.94 13.3C24.78 15 24.22 16.33 23.25 17.27L15.66 24.86C15.47 25.05 15.23 25.14 14.95 25.14C14.67 25.14 14.44 25.05 14.25 24.86C14.06 24.67 13.97 24.44 13.97 24.16C13.97 23.88 14.06 23.64 14.25 23.45L18.84 18.86C19.09 18.64 19.09 18.41 18.84 18.16C18.59 17.91 18.36 17.91 18.14 18.16L13.55 22.75C13.36 22.94 13.13 23.03 12.84 23.03C12.56 23.03 12.33 22.94 12.14 22.75C11.95 22.56 11.86 22.33 11.86 22.05C11.86 21.77 11.95 21.53 12.14 21.34L16.73 16.75C17 16.5 17 16.25 16.73 16C16.5 15.75 16.28 15.75 16.03 16L11.44 20.64C11.25 20.83 11 20.92 10.73 20.92C10.45 20.92 10.21 20.83 10 20.64C9.80005 20.45 9.70005 20.22 9.70005 19.94C9.70005 19.66 9.81005 19.41 10.03 19.19L14.63 14.59C14.88 14.34 14.88 14.11 14.63 13.89C14.38 13.67 14.14 13.67 13.92 13.89L9.28005 18.5C9.06005 18.7 8.83005 18.81 8.58005 18.81C8.30005 18.81 8.06005 18.71 7.88005 18.5C7.69005 18.3 7.59005 18.06 7.59005 17.78C7.59005 17.5 7.69005 17.27 7.88005 17.08C10.94 14 12.83 12.14 13.55 11.45L17.11 14.97C17.5 15.34 17.95 15.53 18.5 15.53C19.2 15.53 19.75 15.25 20.16 14.69C20.44 14.28 20.54 13.83 20.46 13.33C20.38 12.83 20.17 12.41 19.83 12.06L15.75 7.94ZM17.81 14.27L13.55 10L6.47005 17.08C5.63005 16.23 5.15005 14.93 5.04005 13.16C4.93005 11.4 5.41005 9.87 6.47005 8.59C7.66005 7.41 9.08005 6.81 10.73 6.81C12.39 6.81 13.8 7.41 14.95 8.59L19.22 12.86C19.41 13.05 19.5 13.28 19.5 13.56C19.5 13.84 19.41 14.08 19.22 14.27C19.03 14.45 18.8 14.55 18.5 14.55C18.23 14.55 18 14.45 17.81 14.27Z" fill="white"/>
</svg>
