<svg width="35" height="35" viewBox="0 0 35 35" fill="none" xmlns="http://www.w3.org/2000/svg">
<rect width="35" height="35" rx="10" fill="#172927"/>
<path d="M17 15C17.825 15 18.5 14.325 18.5 13.5C18.5 12.675 17.825 12 17 12C16.175 12 15.5 12.675 15.5 13.5C15.5 14.325 16.175 15 17 15ZM17 16.5C16.175 16.5 15.5 17.175 15.5 18C15.5 18.825 16.175 19.5 17 19.5C17.825 19.5 18.5 18.825 18.5 18C18.5 17.175 17.825 16.5 17 16.5ZM17 21C16.175 21 15.5 21.675 15.5 22.5C15.5 23.325 16.175 24 17 24C17.825 24 18.5 23.325 18.5 22.5C18.5 21.675 17.825 21 17 21Z" fill="#2CC66D"/>
</svg>
