<svg width="35" height="35" viewBox="0 0 35 35" fill="none" xmlns="http://www.w3.org/2000/svg">
<rect width="35" height="35" rx="10" fill="#172927"/>
<path d="M26 24V25H8V24L10 22V16C10 12.9 12.03 10.17 15 9.29C15 9.19 15 9.1 15 9C15 8.46957 15.2107 7.96086 15.5858 7.58579C15.9609 7.21071 16.4696 7 17 7C17.5304 7 18.0391 7.21071 18.4142 7.58579C18.7893 7.96086 19 8.46957 19 9C19 9.1 19 9.19 19 9.29C21.97 10.17 24 12.9 24 16V22L26 24ZM19 26C19 26.5304 18.7893 27.0391 18.4142 27.4142C18.0391 27.7893 17.5304 28 17 28C16.4696 28 15.9609 27.7893 15.5858 27.4142C15.2107 27.0391 15 26.5304 15 26" fill="#27C269"/>
</svg>
