<svg width="35" height="35" viewBox="0 0 35 35" fill="none" xmlns="http://www.w3.org/2000/svg">
<rect width="35" height="35" rx="10" fill="#172927"/>
<path d="M15.125 11.25C16.4179 11.25 17.6579 11.7636 18.5721 12.6779C19.4864 13.5921 20 14.8321 20 16.125C20 17.3325 19.5575 18.4425 18.83 19.2975L19.0325 19.5H19.625L23.375 23.25L22.25 24.375L18.5 20.625V20.0325L18.2975 19.83C17.4425 20.5575 16.3325 21 15.125 21C13.8321 21 12.5921 20.4864 11.6779 19.5721C10.7636 18.6579 10.25 17.4179 10.25 16.125C10.25 14.8321 10.7636 13.5921 11.6779 12.6779C12.5921 11.7636 13.8321 11.25 15.125 11.25V11.25ZM15.125 12.75C13.25 12.75 11.75 14.25 11.75 16.125C11.75 18 13.25 19.5 15.125 19.5C17 19.5 18.5 18 18.5 16.125C18.5 14.25 17 12.75 15.125 12.75Z" fill="#2CC66D"/>
</svg>
