<svg width="35" height="35" viewBox="0 0 35 35" fill="none" xmlns="http://www.w3.org/2000/svg">
<rect width="35" height="35" rx="10" fill="#172927"/>
<path d="M23.8766 18.1592C23.9136 17.8631 23.9414 17.5671 23.9414 17.2525C23.9414 16.9379 23.9136 16.6418 23.8766 16.3457L25.8289 14.8191C26.0047 14.6803 26.051 14.4305 25.9399 14.2269L24.0894 11.0256C24.0062 10.8775 23.8489 10.7942 23.6823 10.7942C23.6268 10.7942 23.5713 10.8035 23.525 10.822L21.2212 11.7473C20.74 11.3772 20.2219 11.0718 19.6575 10.8405L19.3059 8.3886C19.2782 8.16654 19.0839 8 18.8525 8H15.1515C14.9202 8 14.7259 8.16654 14.6982 8.3886L14.3466 10.8405C13.7822 11.0718 13.264 11.3864 12.7829 11.7473L10.479 10.822C10.4235 10.8035 10.368 10.7942 10.3125 10.7942C10.1552 10.7942 9.99792 10.8775 9.91464 11.0256L8.06415 14.2269C7.94387 14.4305 7.99938 14.6803 8.17518 14.8191L10.1275 16.3457C10.0904 16.6418 10.0627 16.9471 10.0627 17.2525C10.0627 17.5578 10.0904 17.8631 10.1275 18.1592L8.17518 19.6859C7.99938 19.8247 7.95312 20.0745 8.06415 20.278L9.91464 23.4794C9.99792 23.6274 10.1552 23.7107 10.3218 23.7107C10.3773 23.7107 10.4328 23.7015 10.479 23.683L12.7829 22.7577C13.264 23.1278 13.7822 23.4331 14.3466 23.6644L14.6982 26.1164C14.7259 26.3384 14.9202 26.505 15.1515 26.505H18.8525C19.0839 26.505 19.2782 26.3384 19.3059 26.1164L19.6575 23.6644C20.2219 23.4331 20.74 23.1186 21.2212 22.7577L23.525 23.683C23.5806 23.7015 23.6361 23.7107 23.6916 23.7107C23.8489 23.7107 24.0062 23.6274 24.0894 23.4794L25.9399 20.278C26.051 20.0745 26.0047 19.8247 25.8289 19.6859L23.8766 18.1592V18.1592ZM22.0446 16.577C22.0817 16.8639 22.0909 17.0582 22.0909 17.2525C22.0909 17.4468 22.0724 17.6503 22.0446 17.9279L21.9151 18.9734L22.7386 19.6211L23.7378 20.3983L23.0902 21.5179L21.9151 21.046L20.9529 20.6574L20.1201 21.2866C19.7223 21.5826 19.3429 21.8047 18.9636 21.962L17.9828 22.3598L17.8348 23.4054L17.6497 24.6545H16.3544L16.1786 23.4054L16.0305 22.3598L15.0498 21.962C14.6519 21.7954 14.2818 21.5826 13.9117 21.3051L13.0697 20.6574L12.089 21.0552L10.9139 21.5271L10.2662 20.4076L11.2655 19.6304L12.089 18.9827L11.9594 17.9372C11.9317 17.6503 11.9132 17.4375 11.9132 17.2525C11.9132 17.0674 11.9317 16.8546 11.9594 16.577L12.089 15.5315L11.2655 14.8838L10.2662 14.1066L10.9139 12.9871L12.089 13.459L13.0512 13.8476L13.884 13.2184C14.2818 12.9223 14.6612 12.7003 15.0405 12.543L16.0213 12.1451L16.1693 11.0996L16.3544 9.8505H17.6405L17.8163 11.0996L17.9643 12.1451L18.9451 12.543C19.3429 12.7095 19.713 12.9223 20.0831 13.1999L20.9251 13.8476L21.9059 13.4497L23.0809 12.9778L23.7286 14.0974L22.7386 14.8838L21.9151 15.5315L22.0446 16.577ZM17.002 13.5515C14.9572 13.5515 13.3011 15.2077 13.3011 17.2525C13.3011 19.2973 14.9572 20.9535 17.002 20.9535C19.0468 20.9535 20.703 19.2973 20.703 17.2525C20.703 15.2077 19.0468 13.5515 17.002 13.5515ZM17.002 19.103C15.9843 19.103 15.1515 18.2703 15.1515 17.2525C15.1515 16.2347 15.9843 15.402 17.002 15.402C18.0198 15.402 18.8525 16.2347 18.8525 17.2525C18.8525 18.2703 18.0198 19.103 17.002 19.103Z" fill="#2CC66D"/>
</svg>
